<svg width="280" height="64" viewBox="0 0 280 64" fill="none" xmlns="http://www.w3.org/2000/svg">
<path d="M28.1665 13.0555L38.4739 7.90292C38.819 7.73049 39.2024 7.64909 39.5877 7.66645C39.9731 7.68381 40.3476 7.79934 40.6758 8.00209C41.0039 8.20484 41.2748 8.48808 41.4628 8.82493C41.6508 9.16178 41.7495 9.54108 41.7497 9.92682V25.2397C41.7495 25.6254 41.6508 26.0047 41.4628 26.3416C41.2748 26.6784 41.0039 26.9617 40.6758 27.1644C40.3476 27.3671 39.9731 27.4827 39.5877 27.5C39.2024 27.5174 38.819 27.436 38.4739 27.2636L28.1665 22.111V13.0555ZM5.52775 31.1665H23.6387C24.8396 31.1665 25.9912 30.6895 26.8403 29.8403C27.6895 28.9912 28.1665 27.8396 28.1665 26.6387V8.52775C28.1665 7.32691 27.6895 6.17526 26.8403 5.32615C25.9912 4.47703 24.8396 4 23.6387 4H5.52775C4.32691 4 3.17526 4.47703 2.32615 5.32615C1.47703 6.17526 1 7.32691 1 8.52775V26.6387C1 27.8396 1.47703 28.9912 2.32615 29.8403C3.17526 30.6895 4.32691 31.1665 5.52775 31.1665Z" fill="white" stroke="white" stroke-width="2" stroke-linecap="round" stroke-linejoin="round"/>
<path d="M50.3712 23.2033C48.808 23.2033 47.5414 24.47 47.5414 26.0332V26.0388L44.7115 20.3735C43.1483 20.3735 41.8817 21.6401 41.8817 23.2033V24.6579L39.0518 22.9203C37.4886 22.9203 36.222 24.187 36.222 25.7502V29.7516L35.0901 40.222H50.4187L50.3712 23.2033Z" fill="#EF9645"/>
<path d="M62.681 38.206C61.1178 37.5144 58.8845 38.4414 57.3043 40.6827C56.2663 42.1542 55.9607 44.2494 54.5979 44.4679C54.0772 44.5505 53.201 44.1136 53.201 42.8866V24.9408C53.201 24.9408 53.201 22.6769 50.9372 22.6769C48.6733 22.6769 48.6733 24.9408 48.6733 24.9408V38.1086C48.6733 38.0758 47.5414 38.0362 47.5414 38.0158V22.111C47.5414 22.111 47.5414 19.8471 45.2775 19.8471C43.0136 19.8471 43.0136 22.111 43.0136 22.111V38.0181C43.0136 38.0373 41.8817 38.0645 41.8817 38.0962V24.6578C41.8817 24.6578 41.8817 22.394 39.6178 22.394C37.3539 22.394 37.3539 24.6578 37.3539 24.6578V38.9633C37.3539 39.0968 36.222 39.2474 36.222 39.4138V29.7516C36.222 29.7516 36.222 27.4877 33.9581 27.4877C31.6942 27.4877 31.6942 29.7516 31.6942 29.7516V47.0136C31.6942 54.5149 37.7761 60.5968 45.2775 60.5968C50.6825 60.5968 54.4009 57.6561 56.4791 54.6066C58.2416 52.0202 58.7532 49.3341 58.8607 48.5225C58.8607 48.5225 59 46.8483 60.1693 45.2795C61.8321 43.0507 62.9991 41.7071 63.7066 40.9034C64.0654 40.4982 64.414 38.9723 62.681 38.206V38.206Z" fill="#FFDC5D"/>
<path d="M53.698 44.1509C53.3618 43.8498 53.2769 43.5261 53.2259 43.2363C51.0843 43.5295 48.1809 44.1294 45.951 46.3095C43.0578 49.1382 42.5642 52.1956 42.588 54.241C42.6072 55.8903 43.5071 56.6713 43.7709 54.2274C44.1014 51.1644 46.3223 45.1006 53.7138 44.5154C53.7455 44.5132 54.1519 44.4882 54.3828 44.4758C54.3828 44.4758 53.9843 44.4079 53.698 44.1509Z" fill="#EF9645"/>
<path d="M85.768 32.452H91.696V40.852C90.768 41.156 89.832 41.38 88.888 41.524C87.944 41.668 86.872 41.74 85.672 41.74C83.896 41.74 82.4 41.388 81.184 40.684C79.968 39.964 79.04 38.948 78.4 37.636C77.776 36.308 77.464 34.74 77.464 32.932C77.464 31.14 77.816 29.588 78.52 28.276C79.224 26.964 80.232 25.948 81.544 25.228C82.872 24.492 84.472 24.124 86.344 24.124C87.304 24.124 88.208 24.212 89.056 24.388C89.92 24.564 90.72 24.812 91.456 25.132L90.64 27.004C90.032 26.732 89.344 26.5 88.576 26.308C87.824 26.116 87.04 26.02 86.224 26.02C84.176 26.02 82.576 26.636 81.424 27.868C80.288 29.1 79.72 30.788 79.72 32.932C79.72 34.292 79.936 35.5 80.368 36.556C80.816 37.596 81.512 38.412 82.456 39.004C83.4 39.58 84.64 39.868 86.176 39.868C86.928 39.868 87.568 39.828 88.096 39.748C88.624 39.668 89.104 39.572 89.536 39.46V34.372H85.768V32.452ZM100.469 28.396C101.573 28.396 102.517 28.636 103.301 29.116C104.101 29.596 104.709 30.276 105.125 31.156C105.557 32.02 105.773 33.036 105.773 34.204V35.476H96.9649C96.9969 36.932 97.3649 38.044 98.0689 38.812C98.7889 39.564 99.7889 39.94 101.069 39.94C101.885 39.94 102.605 39.868 103.229 39.724C103.869 39.564 104.525 39.34 105.197 39.052V40.9C104.541 41.188 103.893 41.396 103.253 41.524C102.613 41.668 101.853 41.74 100.973 41.74C99.7569 41.74 98.6769 41.492 97.7329 40.996C96.8049 40.5 96.0769 39.764 95.5489 38.788C95.0369 37.796 94.7809 36.588 94.7809 35.164C94.7809 33.756 95.0129 32.548 95.4769 31.54C95.9569 30.532 96.6209 29.756 97.4689 29.212C98.3329 28.668 99.3329 28.396 100.469 28.396ZM100.445 30.124C99.4369 30.124 98.6369 30.452 98.0449 31.108C97.4689 31.748 97.1249 32.644 97.0129 33.796H103.565C103.549 32.708 103.293 31.828 102.797 31.156C102.301 30.468 101.517 30.124 100.445 30.124ZM117.424 37.948C117.424 39.196 116.96 40.14 116.032 40.78C115.104 41.42 113.856 41.74 112.288 41.74C111.392 41.74 110.616 41.668 109.96 41.524C109.32 41.38 108.752 41.18 108.256 40.924V39.004C108.768 39.26 109.384 39.5 110.104 39.724C110.84 39.932 111.584 40.036 112.336 40.036C113.408 40.036 114.184 39.868 114.664 39.532C115.144 39.18 115.384 38.716 115.384 38.14C115.384 37.82 115.296 37.532 115.12 37.276C114.944 37.02 114.624 36.764 114.16 36.508C113.712 36.252 113.064 35.964 112.216 35.644C111.384 35.324 110.672 35.004 110.08 34.684C109.488 34.364 109.032 33.98 108.712 33.532C108.392 33.084 108.232 32.508 108.232 31.804C108.232 30.716 108.672 29.876 109.552 29.284C110.448 28.692 111.616 28.396 113.056 28.396C113.84 28.396 114.568 28.476 115.24 28.636C115.928 28.78 116.568 28.988 117.16 29.26L116.44 30.94C115.896 30.716 115.328 30.524 114.736 30.364C114.144 30.204 113.536 30.124 112.912 30.124C112.048 30.124 111.384 30.268 110.92 30.556C110.472 30.828 110.248 31.204 110.248 31.684C110.248 32.036 110.352 32.34 110.56 32.596C110.768 32.836 111.112 33.076 111.592 33.316C112.088 33.54 112.744 33.812 113.56 34.132C114.376 34.436 115.072 34.748 115.648 35.068C116.224 35.388 116.664 35.78 116.968 36.244C117.272 36.692 117.424 37.26 117.424 37.948ZM124.828 40.012C125.148 40.012 125.476 39.988 125.812 39.94C126.148 39.876 126.42 39.812 126.628 39.748V41.356C126.404 41.468 126.084 41.556 125.668 41.62C125.252 41.7 124.852 41.74 124.468 41.74C123.796 41.74 123.172 41.628 122.596 41.404C122.036 41.164 121.58 40.756 121.228 40.18C120.876 39.604 120.7 38.796 120.7 37.756V30.268H118.876V29.26L120.724 28.42L121.564 25.684H122.812V28.636H126.532V30.268H122.812V37.708C122.812 38.492 122.996 39.076 123.364 39.46C123.748 39.828 124.236 40.012 124.828 40.012ZM139.956 28.636V41.5H138.228L137.916 39.796H137.82C137.404 40.468 136.828 40.964 136.092 41.284C135.356 41.588 134.572 41.74 133.74 41.74C132.188 41.74 131.02 41.372 130.236 40.636C129.452 39.884 129.06 38.692 129.06 37.06V28.636H131.196V36.916C131.196 38.964 132.148 39.988 134.052 39.988C135.476 39.988 136.46 39.588 137.004 38.788C137.564 37.988 137.844 36.836 137.844 35.332V28.636H139.956ZM150.04 28.396C150.28 28.396 150.536 28.412 150.808 28.444C151.096 28.46 151.344 28.492 151.552 28.54L151.288 30.484C151.08 30.436 150.848 30.396 150.592 30.364C150.352 30.332 150.12 30.316 149.896 30.316C149.24 30.316 148.624 30.5 148.048 30.868C147.472 31.22 147.008 31.724 146.656 32.38C146.32 33.02 146.152 33.772 146.152 34.636V41.5H144.04V28.636H145.768L146.008 30.988H146.104C146.52 30.284 147.056 29.676 147.712 29.164C148.368 28.652 149.144 28.396 150.04 28.396ZM158.453 28.396C159.557 28.396 160.501 28.636 161.285 29.116C162.085 29.596 162.693 30.276 163.109 31.156C163.541 32.02 163.757 33.036 163.757 34.204V35.476H154.949C154.981 36.932 155.349 38.044 156.053 38.812C156.773 39.564 157.773 39.94 159.053 39.94C159.869 39.94 160.589 39.868 161.213 39.724C161.853 39.564 162.509 39.34 163.181 39.052V40.9C162.525 41.188 161.877 41.396 161.237 41.524C160.597 41.668 159.837 41.74 158.957 41.74C157.741 41.74 156.661 41.492 155.717 40.996C154.789 40.5 154.061 39.764 153.533 38.788C153.021 37.796 152.765 36.588 152.765 35.164C152.765 33.756 152.997 32.548 153.461 31.54C153.941 30.532 154.605 29.756 155.453 29.212C156.317 28.668 157.317 28.396 158.453 28.396ZM158.429 30.124C157.421 30.124 156.621 30.452 156.029 31.108C155.453 31.748 155.109 32.644 154.997 33.796H161.549C161.533 32.708 161.277 31.828 160.781 31.156C160.285 30.468 159.501 30.124 158.429 30.124ZM171.592 41.74C169.992 41.74 168.712 41.188 167.752 40.084C166.792 38.964 166.312 37.3 166.312 35.092C166.312 32.884 166.792 31.22 167.752 30.1C168.728 28.964 170.016 28.396 171.616 28.396C172.608 28.396 173.416 28.58 174.04 28.948C174.68 29.316 175.2 29.764 175.6 30.292H175.744C175.728 30.084 175.696 29.78 175.648 29.38C175.616 28.964 175.6 28.636 175.6 28.396V23.26H177.712V41.5H176.008L175.696 39.772H175.6C175.216 40.316 174.704 40.78 174.064 41.164C173.424 41.548 172.6 41.74 171.592 41.74ZM171.928 39.988C173.288 39.988 174.24 39.62 174.784 38.884C175.344 38.132 175.624 37.004 175.624 35.5V35.116C175.624 33.516 175.36 32.292 174.832 31.444C174.304 30.58 173.328 30.148 171.904 30.148C170.768 30.148 169.912 30.604 169.336 31.516C168.776 32.412 168.496 33.62 168.496 35.14C168.496 36.676 168.776 37.868 169.336 38.716C169.912 39.564 170.776 39.988 171.928 39.988ZM195.88 41.5L190.24 26.476H190.144C190.192 26.972 190.232 27.644 190.264 28.492C190.296 29.324 190.312 30.196 190.312 31.108V41.5H188.32V24.364H191.512L196.792 38.404H196.888L202.264 24.364H205.432V41.5H203.296V30.964C203.296 30.132 203.312 29.308 203.344 28.492C203.392 27.676 203.432 27.012 203.464 26.5H203.368L197.656 41.5H195.88ZM214.774 28.396C215.878 28.396 216.822 28.636 217.606 29.116C218.406 29.596 219.014 30.276 219.43 31.156C219.862 32.02 220.078 33.036 220.078 34.204V35.476H211.27C211.302 36.932 211.67 38.044 212.374 38.812C213.094 39.564 214.094 39.94 215.374 39.94C216.19 39.94 216.91 39.868 217.534 39.724C218.174 39.564 218.83 39.34 219.502 39.052V40.9C218.846 41.188 218.198 41.396 217.558 41.524C216.918 41.668 216.158 41.74 215.278 41.74C214.062 41.74 212.982 41.492 212.038 40.996C211.11 40.5 210.382 39.764 209.854 38.788C209.342 37.796 209.086 36.588 209.086 35.164C209.086 33.756 209.318 32.548 209.782 31.54C210.262 30.532 210.926 29.756 211.774 29.212C212.638 28.668 213.638 28.396 214.774 28.396ZM214.75 30.124C213.742 30.124 212.942 30.452 212.35 31.108C211.774 31.748 211.43 32.644 211.318 33.796H217.87C217.854 32.708 217.598 31.828 217.102 31.156C216.606 30.468 215.822 30.124 214.75 30.124ZM228.321 28.396C229.425 28.396 230.369 28.636 231.153 29.116C231.953 29.596 232.561 30.276 232.977 31.156C233.409 32.02 233.625 33.036 233.625 34.204V35.476H224.817C224.849 36.932 225.217 38.044 225.921 38.812C226.641 39.564 227.641 39.94 228.921 39.94C229.737 39.94 230.457 39.868 231.081 39.724C231.721 39.564 232.377 39.34 233.049 39.052V40.9C232.393 41.188 231.745 41.396 231.105 41.524C230.465 41.668 229.705 41.74 228.825 41.74C227.609 41.74 226.529 41.492 225.585 40.996C224.657 40.5 223.929 39.764 223.401 38.788C222.889 37.796 222.633 36.588 222.633 35.164C222.633 33.756 222.865 32.548 223.329 31.54C223.809 30.532 224.473 29.756 225.321 29.212C226.185 28.668 227.185 28.396 228.321 28.396ZM228.297 30.124C227.289 30.124 226.489 30.452 225.897 31.108C225.321 31.748 224.977 32.644 224.865 33.796H231.417C231.401 32.708 231.145 31.828 230.649 31.156C230.153 30.468 229.369 30.124 228.297 30.124ZM241.195 40.012C241.515 40.012 241.843 39.988 242.179 39.94C242.515 39.876 242.787 39.812 242.995 39.748V41.356C242.771 41.468 242.451 41.556 242.035 41.62C241.619 41.7 241.219 41.74 240.835 41.74C240.163 41.74 239.539 41.628 238.963 41.404C238.403 41.164 237.947 40.756 237.595 40.18C237.243 39.604 237.067 38.796 237.067 37.756V30.268H235.243V29.26L237.091 28.42L237.931 25.684H239.179V28.636H242.899V30.268H239.179V37.708C239.179 38.492 239.363 39.076 239.731 39.46C240.115 39.828 240.603 40.012 241.195 40.012ZM246.651 23.812C246.971 23.812 247.251 23.924 247.491 24.148C247.747 24.356 247.875 24.692 247.875 25.156C247.875 25.604 247.747 25.94 247.491 26.164C247.251 26.388 246.971 26.5 246.651 26.5C246.299 26.5 246.003 26.388 245.763 26.164C245.523 25.94 245.403 25.604 245.403 25.156C245.403 24.692 245.523 24.356 245.763 24.148C246.003 23.924 246.299 23.812 246.651 23.812ZM247.683 28.636V41.5H245.571V28.636H247.683ZM257.951 28.396C259.487 28.396 260.647 28.772 261.431 29.524C262.215 30.26 262.607 31.46 262.607 33.124V41.5H260.519V33.268C260.519 31.204 259.559 30.172 257.639 30.172C256.215 30.172 255.231 30.572 254.687 31.372C254.143 32.172 253.871 33.324 253.871 34.828V41.5H251.759V28.636H253.463L253.775 30.388H253.895C254.311 29.716 254.887 29.22 255.623 28.9C256.359 28.564 257.135 28.396 257.951 28.396ZM271.155 28.396C272.003 28.396 272.763 28.556 273.435 28.876C274.123 29.196 274.707 29.684 275.187 30.34H275.307L275.595 28.636H277.275V41.716C277.275 43.556 276.803 44.94 275.859 45.868C274.931 46.796 273.483 47.26 271.515 47.26C269.627 47.26 268.083 46.988 266.883 46.444V44.5C268.147 45.172 269.731 45.508 271.635 45.508C272.739 45.508 273.603 45.18 274.227 44.524C274.867 43.884 275.187 43.004 275.187 41.884V41.38C275.187 41.188 275.195 40.916 275.211 40.564C275.227 40.196 275.243 39.94 275.259 39.796H275.163C274.299 41.092 272.971 41.74 271.179 41.74C269.515 41.74 268.211 41.156 267.267 39.988C266.339 38.82 265.875 37.188 265.875 35.092C265.875 33.044 266.339 31.42 267.267 30.22C268.211 29.004 269.507 28.396 271.155 28.396ZM271.443 30.172C270.371 30.172 269.539 30.604 268.947 31.468C268.355 32.316 268.059 33.532 268.059 35.116C268.059 36.7 268.347 37.916 268.923 38.764C269.515 39.596 270.371 40.012 271.491 40.012C272.787 40.012 273.731 39.668 274.323 38.98C274.915 38.276 275.211 37.148 275.211 35.596V35.092C275.211 33.332 274.907 32.076 274.299 31.324C273.691 30.556 272.739 30.172 271.443 30.172Z" fill="black"/>
</svg>
