<svg width="328" height="112" viewBox="0 0 328 112" fill="none" xmlns="http://www.w3.org/2000/svg">
<rect width="328" height="112" fill="black"/>
<path d="M52.1665 37.0555L62.4739 31.9029C62.819 31.7305 63.2024 31.6491 63.5877 31.6664C63.9731 31.6838 64.3476 31.7993 64.6758 32.0021C65.0039 32.2048 65.2748 32.4881 65.4628 32.8249C65.6508 33.1618 65.7495 33.5411 65.7497 33.9268V49.2397C65.7495 49.6254 65.6508 50.0047 65.4628 50.3416C65.2748 50.6784 65.0039 50.9617 64.6758 51.1644C64.3476 51.3671 63.9731 51.4827 63.5877 51.5C63.2024 51.5174 62.819 51.436 62.4739 51.2636L52.1665 46.111V37.0555ZM29.5277 55.1665H47.6387C48.8396 55.1665 49.9912 54.6895 50.8403 53.8403C51.6895 52.9912 52.1665 51.8396 52.1665 50.6387V32.5277C52.1665 31.3269 51.6895 30.1753 50.8403 29.3261C49.9912 28.477 48.8396 28 47.6387 28H29.5277C28.3269 28 27.1753 28.477 26.3261 29.3261C25.477 30.1753 25 31.3269 25 32.5277V50.6387C25 51.8396 25.477 52.9912 26.3261 53.8403C27.1753 54.6895 28.3269 55.1665 29.5277 55.1665Z" fill="white" stroke="white" stroke-width="2" stroke-linecap="round" stroke-linejoin="round"/>
<path d="M74.3712 47.2033C72.808 47.2033 71.5414 48.47 71.5414 50.0332V50.0388L68.7115 44.3735C67.1483 44.3735 65.8817 45.6401 65.8817 47.2033V48.6579L63.0518 46.9203C61.4886 46.9203 60.222 48.187 60.222 49.7502V53.7516L59.0901 64.222H74.4187L74.3712 47.2033Z" fill="#EF9645"/>
<path d="M86.681 62.206C85.1178 61.5144 82.8845 62.4414 81.3043 64.6827C80.2663 66.1542 79.9607 68.2494 78.5979 68.4679C78.0772 68.5505 77.201 68.1136 77.201 66.8866V48.9408C77.201 48.9408 77.201 46.6769 74.9372 46.6769C72.6733 46.6769 72.6733 48.9408 72.6733 48.9408V62.1086C72.6733 62.0758 71.5414 62.0362 71.5414 62.0158V46.111C71.5414 46.111 71.5414 43.8471 69.2775 43.8471C67.0136 43.8471 67.0136 46.111 67.0136 46.111V62.0181C67.0136 62.0373 65.8817 62.0645 65.8817 62.0962V48.6578C65.8817 48.6578 65.8817 46.394 63.6178 46.394C61.3539 46.394 61.3539 48.6578 61.3539 48.6578V62.9633C61.3539 63.0968 60.222 63.2474 60.222 63.4138V53.7516C60.222 53.7516 60.222 51.4877 57.9581 51.4877C55.6942 51.4877 55.6942 53.7516 55.6942 53.7516V71.0136C55.6942 78.5149 61.7761 84.5968 69.2775 84.5968C74.6825 84.5968 78.4009 81.6561 80.4791 78.6066C82.2416 76.0202 82.7532 73.3341 82.8607 72.5225C82.8607 72.5225 83 70.8483 84.1693 69.2795C85.8321 67.0507 86.9991 65.7071 87.7066 64.9034C88.0654 64.4982 88.414 62.9723 86.681 62.206Z" fill="#FFDC5D"/>
<path d="M77.698 68.1509C77.3618 67.8498 77.2769 67.5261 77.2259 67.2363C75.0843 67.5295 72.1809 68.1294 69.951 70.3095C67.0578 73.1382 66.5642 76.1956 66.588 78.241C66.6072 79.8903 67.5071 80.6713 67.7709 78.2274C68.1014 75.1644 70.3223 69.1006 77.7138 68.5154C77.7455 68.5132 78.1519 68.4882 78.3828 68.4758C78.3828 68.4758 77.9843 68.4079 77.698 68.1509Z" fill="#EF9645"/>
<path d="M109.768 56.452H115.696V64.852C114.768 65.156 113.832 65.38 112.888 65.524C111.944 65.668 110.872 65.74 109.672 65.74C107.896 65.74 106.4 65.388 105.184 64.684C103.968 63.964 103.04 62.948 102.4 61.636C101.776 60.308 101.464 58.74 101.464 56.932C101.464 55.14 101.816 53.588 102.52 52.276C103.224 50.964 104.232 49.948 105.544 49.228C106.872 48.492 108.472 48.124 110.344 48.124C111.304 48.124 112.208 48.212 113.056 48.388C113.92 48.564 114.72 48.812 115.456 49.132L114.64 51.004C114.032 50.732 113.344 50.5 112.576 50.308C111.824 50.116 111.04 50.02 110.224 50.02C108.176 50.02 106.576 50.636 105.424 51.868C104.288 53.1 103.72 54.788 103.72 56.932C103.72 58.292 103.936 59.5 104.368 60.556C104.816 61.596 105.512 62.412 106.456 63.004C107.4 63.58 108.64 63.868 110.176 63.868C110.928 63.868 111.568 63.828 112.096 63.748C112.624 63.668 113.104 63.572 113.536 63.46V58.372H109.768V56.452ZM124.469 52.396C125.573 52.396 126.517 52.636 127.301 53.116C128.101 53.596 128.709 54.276 129.125 55.156C129.557 56.02 129.773 57.036 129.773 58.204V59.476H120.965C120.997 60.932 121.365 62.044 122.069 62.812C122.789 63.564 123.789 63.94 125.069 63.94C125.885 63.94 126.605 63.868 127.229 63.724C127.869 63.564 128.525 63.34 129.197 63.052V64.9C128.541 65.188 127.893 65.396 127.253 65.524C126.613 65.668 125.853 65.74 124.973 65.74C123.757 65.74 122.677 65.492 121.733 64.996C120.805 64.5 120.077 63.764 119.549 62.788C119.037 61.796 118.781 60.588 118.781 59.164C118.781 57.756 119.013 56.548 119.477 55.54C119.957 54.532 120.621 53.756 121.469 53.212C122.333 52.668 123.333 52.396 124.469 52.396ZM124.445 54.124C123.437 54.124 122.637 54.452 122.045 55.108C121.469 55.748 121.125 56.644 121.013 57.796H127.565C127.549 56.708 127.293 55.828 126.797 55.156C126.301 54.468 125.517 54.124 124.445 54.124ZM141.424 61.948C141.424 63.196 140.96 64.14 140.032 64.78C139.104 65.42 137.856 65.74 136.288 65.74C135.392 65.74 134.616 65.668 133.96 65.524C133.32 65.38 132.752 65.18 132.256 64.924V63.004C132.768 63.26 133.384 63.5 134.104 63.724C134.84 63.932 135.584 64.036 136.336 64.036C137.408 64.036 138.184 63.868 138.664 63.532C139.144 63.18 139.384 62.716 139.384 62.14C139.384 61.82 139.296 61.532 139.12 61.276C138.944 61.02 138.624 60.764 138.16 60.508C137.712 60.252 137.064 59.964 136.216 59.644C135.384 59.324 134.672 59.004 134.08 58.684C133.488 58.364 133.032 57.98 132.712 57.532C132.392 57.084 132.232 56.508 132.232 55.804C132.232 54.716 132.672 53.876 133.552 53.284C134.448 52.692 135.616 52.396 137.056 52.396C137.84 52.396 138.568 52.476 139.24 52.636C139.928 52.78 140.568 52.988 141.16 53.26L140.44 54.94C139.896 54.716 139.328 54.524 138.736 54.364C138.144 54.204 137.536 54.124 136.912 54.124C136.048 54.124 135.384 54.268 134.92 54.556C134.472 54.828 134.248 55.204 134.248 55.684C134.248 56.036 134.352 56.34 134.56 56.596C134.768 56.836 135.112 57.076 135.592 57.316C136.088 57.54 136.744 57.812 137.56 58.132C138.376 58.436 139.072 58.748 139.648 59.068C140.224 59.388 140.664 59.78 140.968 60.244C141.272 60.692 141.424 61.26 141.424 61.948ZM148.828 64.012C149.148 64.012 149.476 63.988 149.812 63.94C150.148 63.876 150.42 63.812 150.628 63.748V65.356C150.404 65.468 150.084 65.556 149.668 65.62C149.252 65.7 148.852 65.74 148.468 65.74C147.796 65.74 147.172 65.628 146.596 65.404C146.036 65.164 145.58 64.756 145.228 64.18C144.876 63.604 144.7 62.796 144.7 61.756V54.268H142.876V53.26L144.724 52.42L145.564 49.684H146.812V52.636H150.532V54.268H146.812V61.708C146.812 62.492 146.996 63.076 147.364 63.46C147.748 63.828 148.236 64.012 148.828 64.012ZM163.956 52.636V65.5H162.228L161.916 63.796H161.82C161.404 64.468 160.828 64.964 160.092 65.284C159.356 65.588 158.572 65.74 157.74 65.74C156.188 65.74 155.02 65.372 154.236 64.636C153.452 63.884 153.06 62.692 153.06 61.06V52.636H155.196V60.916C155.196 62.964 156.148 63.988 158.052 63.988C159.476 63.988 160.46 63.588 161.004 62.788C161.564 61.988 161.844 60.836 161.844 59.332V52.636H163.956ZM174.04 52.396C174.28 52.396 174.536 52.412 174.808 52.444C175.096 52.46 175.344 52.492 175.552 52.54L175.288 54.484C175.08 54.436 174.848 54.396 174.592 54.364C174.352 54.332 174.12 54.316 173.896 54.316C173.24 54.316 172.624 54.5 172.048 54.868C171.472 55.22 171.008 55.724 170.656 56.38C170.32 57.02 170.152 57.772 170.152 58.636V65.5H168.04V52.636H169.768L170.008 54.988H170.104C170.52 54.284 171.056 53.676 171.712 53.164C172.368 52.652 173.144 52.396 174.04 52.396ZM182.453 52.396C183.557 52.396 184.501 52.636 185.285 53.116C186.085 53.596 186.693 54.276 187.109 55.156C187.541 56.02 187.757 57.036 187.757 58.204V59.476H178.949C178.981 60.932 179.349 62.044 180.053 62.812C180.773 63.564 181.773 63.94 183.053 63.94C183.869 63.94 184.589 63.868 185.213 63.724C185.853 63.564 186.509 63.34 187.181 63.052V64.9C186.525 65.188 185.877 65.396 185.237 65.524C184.597 65.668 183.837 65.74 182.957 65.74C181.741 65.74 180.661 65.492 179.717 64.996C178.789 64.5 178.061 63.764 177.533 62.788C177.021 61.796 176.765 60.588 176.765 59.164C176.765 57.756 176.997 56.548 177.461 55.54C177.941 54.532 178.605 53.756 179.453 53.212C180.317 52.668 181.317 52.396 182.453 52.396ZM182.429 54.124C181.421 54.124 180.621 54.452 180.029 55.108C179.453 55.748 179.109 56.644 178.997 57.796H185.549C185.533 56.708 185.277 55.828 184.781 55.156C184.285 54.468 183.501 54.124 182.429 54.124ZM195.592 65.74C193.992 65.74 192.712 65.188 191.752 64.084C190.792 62.964 190.312 61.3 190.312 59.092C190.312 56.884 190.792 55.22 191.752 54.1C192.728 52.964 194.016 52.396 195.616 52.396C196.608 52.396 197.416 52.58 198.04 52.948C198.68 53.316 199.2 53.764 199.6 54.292H199.744C199.728 54.084 199.696 53.78 199.648 53.38C199.616 52.964 199.6 52.636 199.6 52.396V47.26H201.712V65.5H200.008L199.696 63.772H199.6C199.216 64.316 198.704 64.78 198.064 65.164C197.424 65.548 196.6 65.74 195.592 65.74ZM195.928 63.988C197.288 63.988 198.24 63.62 198.784 62.884C199.344 62.132 199.624 61.004 199.624 59.5V59.116C199.624 57.516 199.36 56.292 198.832 55.444C198.304 54.58 197.328 54.148 195.904 54.148C194.768 54.148 193.912 54.604 193.336 55.516C192.776 56.412 192.496 57.62 192.496 59.14C192.496 60.676 192.776 61.868 193.336 62.716C193.912 63.564 194.776 63.988 195.928 63.988ZM219.88 65.5L214.24 50.476H214.144C214.192 50.972 214.232 51.644 214.264 52.492C214.296 53.324 214.312 54.196 214.312 55.108V65.5H212.32V48.364H215.512L220.792 62.404H220.888L226.264 48.364H229.432V65.5H227.296V54.964C227.296 54.132 227.312 53.308 227.344 52.492C227.392 51.676 227.432 51.012 227.464 50.5H227.368L221.656 65.5H219.88ZM238.774 52.396C239.878 52.396 240.822 52.636 241.606 53.116C242.406 53.596 243.014 54.276 243.43 55.156C243.862 56.02 244.078 57.036 244.078 58.204V59.476H235.27C235.302 60.932 235.67 62.044 236.374 62.812C237.094 63.564 238.094 63.94 239.374 63.94C240.19 63.94 240.91 63.868 241.534 63.724C242.174 63.564 242.83 63.34 243.502 63.052V64.9C242.846 65.188 242.198 65.396 241.558 65.524C240.918 65.668 240.158 65.74 239.278 65.74C238.062 65.74 236.982 65.492 236.038 64.996C235.11 64.5 234.382 63.764 233.854 62.788C233.342 61.796 233.086 60.588 233.086 59.164C233.086 57.756 233.318 56.548 233.782 55.54C234.262 54.532 234.926 53.756 235.774 53.212C236.638 52.668 237.638 52.396 238.774 52.396ZM238.75 54.124C237.742 54.124 236.942 54.452 236.35 55.108C235.774 55.748 235.43 56.644 235.318 57.796H241.87C241.854 56.708 241.598 55.828 241.102 55.156C240.606 54.468 239.822 54.124 238.75 54.124ZM252.321 52.396C253.425 52.396 254.369 52.636 255.153 53.116C255.953 53.596 256.561 54.276 256.977 55.156C257.409 56.02 257.625 57.036 257.625 58.204V59.476H248.817C248.849 60.932 249.217 62.044 249.921 62.812C250.641 63.564 251.641 63.94 252.921 63.94C253.737 63.94 254.457 63.868 255.081 63.724C255.721 63.564 256.377 63.34 257.049 63.052V64.9C256.393 65.188 255.745 65.396 255.105 65.524C254.465 65.668 253.705 65.74 252.825 65.74C251.609 65.74 250.529 65.492 249.585 64.996C248.657 64.5 247.929 63.764 247.401 62.788C246.889 61.796 246.633 60.588 246.633 59.164C246.633 57.756 246.865 56.548 247.329 55.54C247.809 54.532 248.473 53.756 249.321 53.212C250.185 52.668 251.185 52.396 252.321 52.396ZM252.297 54.124C251.289 54.124 250.489 54.452 249.897 55.108C249.321 55.748 248.977 56.644 248.865 57.796H255.417C255.401 56.708 255.145 55.828 254.649 55.156C254.153 54.468 253.369 54.124 252.297 54.124ZM265.195 64.012C265.515 64.012 265.843 63.988 266.179 63.94C266.515 63.876 266.787 63.812 266.995 63.748V65.356C266.771 65.468 266.451 65.556 266.035 65.62C265.619 65.7 265.219 65.74 264.835 65.74C264.163 65.74 263.539 65.628 262.963 65.404C262.403 65.164 261.947 64.756 261.595 64.18C261.243 63.604 261.067 62.796 261.067 61.756V54.268H259.243V53.26L261.091 52.42L261.931 49.684H263.179V52.636H266.899V54.268H263.179V61.708C263.179 62.492 263.363 63.076 263.731 63.46C264.115 63.828 264.603 64.012 265.195 64.012ZM270.651 47.812C270.971 47.812 271.251 47.924 271.491 48.148C271.747 48.356 271.875 48.692 271.875 49.156C271.875 49.604 271.747 49.94 271.491 50.164C271.251 50.388 270.971 50.5 270.651 50.5C270.299 50.5 270.003 50.388 269.763 50.164C269.523 49.94 269.403 49.604 269.403 49.156C269.403 48.692 269.523 48.356 269.763 48.148C270.003 47.924 270.299 47.812 270.651 47.812ZM271.683 52.636V65.5H269.571V52.636H271.683ZM281.951 52.396C283.487 52.396 284.647 52.772 285.431 53.524C286.215 54.26 286.607 55.46 286.607 57.124V65.5H284.519V57.268C284.519 55.204 283.559 54.172 281.639 54.172C280.215 54.172 279.231 54.572 278.687 55.372C278.143 56.172 277.871 57.324 277.871 58.828V65.5H275.759V52.636H277.463L277.775 54.388H277.895C278.311 53.716 278.887 53.22 279.623 52.9C280.359 52.564 281.135 52.396 281.951 52.396ZM295.155 52.396C296.003 52.396 296.763 52.556 297.435 52.876C298.123 53.196 298.707 53.684 299.187 54.34H299.307L299.595 52.636H301.275V65.716C301.275 67.556 300.803 68.94 299.859 69.868C298.931 70.796 297.483 71.26 295.515 71.26C293.627 71.26 292.083 70.988 290.883 70.444V68.5C292.147 69.172 293.731 69.508 295.635 69.508C296.739 69.508 297.603 69.18 298.227 68.524C298.867 67.884 299.187 67.004 299.187 65.884V65.38C299.187 65.188 299.195 64.916 299.211 64.564C299.227 64.196 299.243 63.94 299.259 63.796H299.163C298.299 65.092 296.971 65.74 295.179 65.74C293.515 65.74 292.211 65.156 291.267 63.988C290.339 62.82 289.875 61.188 289.875 59.092C289.875 57.044 290.339 55.42 291.267 54.22C292.211 53.004 293.507 52.396 295.155 52.396ZM295.443 54.172C294.371 54.172 293.539 54.604 292.947 55.468C292.355 56.316 292.059 57.532 292.059 59.116C292.059 60.7 292.347 61.916 292.923 62.764C293.515 63.596 294.371 64.012 295.491 64.012C296.787 64.012 297.731 63.668 298.323 62.98C298.915 62.276 299.211 61.148 299.211 59.596V59.092C299.211 57.332 298.907 56.076 298.299 55.324C297.691 54.556 296.739 54.172 295.443 54.172Z" fill="white"/>
</svg>
