<svg width="64" height="64" viewBox="0 0 64 64" fill="none" xmlns="http://www.w3.org/2000/svg">
<path d="M28.1665 13.0555L38.4739 7.90292C38.819 7.73049 39.2024 7.64909 39.5877 7.66645C39.9731 7.68381 40.3476 7.79934 40.6758 8.00209C41.0039 8.20484 41.2748 8.48808 41.4628 8.82493C41.6508 9.16178 41.7495 9.54108 41.7497 9.92682V25.2397C41.7495 25.6254 41.6508 26.0047 41.4628 26.3416C41.2748 26.6784 41.0039 26.9617 40.6758 27.1644C40.3476 27.3671 39.9731 27.4827 39.5877 27.5C39.2024 27.5174 38.819 27.436 38.4739 27.2636L28.1665 22.111V13.0555ZM5.52775 31.1665H23.6387C24.8396 31.1665 25.9912 30.6895 26.8403 29.8403C27.6895 28.9912 28.1665 27.8396 28.1665 26.6387V8.52775C28.1665 7.32691 27.6895 6.17526 26.8403 5.32615C25.9912 4.47703 24.8396 4 23.6387 4H5.52775C4.32691 4 3.17526 4.47703 2.32615 5.32615C1.47703 6.17526 1 7.32691 1 8.52775V26.6387C1 27.8396 1.47703 28.9912 2.32615 29.8403C3.17526 30.6895 4.32691 31.1665 5.52775 31.1665Z" fill="white" stroke="white" stroke-width="2" stroke-linecap="round" stroke-linejoin="round"/>
<path d="M50.3712 23.2033C48.808 23.2033 47.5413 24.47 47.5413 26.0332V26.0388L44.7115 20.3735C43.1483 20.3735 41.8817 21.6401 41.8817 23.2033V24.6579L39.0518 22.9203C37.4886 22.9203 36.222 24.187 36.222 25.7502V29.7516L35.09 40.222H50.4187L50.3712 23.2033Z" fill="#EF9645"/>
<path d="M62.681 38.206C61.1178 37.5144 58.8845 38.4414 57.3043 40.6827C56.2663 42.1542 55.9607 44.2494 54.5978 44.4679C54.0772 44.5505 53.201 44.1136 53.201 42.8866V24.9408C53.201 24.9408 53.201 22.6769 50.9372 22.6769C48.6733 22.6769 48.6733 24.9408 48.6733 24.9408V38.1086C48.6733 38.0758 47.5414 38.0362 47.5414 38.0158V22.111C47.5414 22.111 47.5414 19.8471 45.2775 19.8471C43.0136 19.8471 43.0136 22.111 43.0136 22.111V38.0181C43.0136 38.0373 41.8817 38.0645 41.8817 38.0962V24.6578C41.8817 24.6578 41.8817 22.394 39.6178 22.394C37.3539 22.394 37.3539 24.6578 37.3539 24.6578V38.9633C37.3539 39.0968 36.222 39.2474 36.222 39.4138V29.7516C36.222 29.7516 36.222 27.4877 33.9581 27.4877C31.6942 27.4877 31.6942 29.7516 31.6942 29.7516V47.0136C31.6942 54.5149 37.7761 60.5968 45.2775 60.5968C50.6825 60.5968 54.4009 57.6561 56.4791 54.6066C58.2416 52.0202 58.7532 49.3341 58.8607 48.5225C58.8607 48.5225 59 46.8483 60.1692 45.2795C61.8321 43.0507 62.9991 41.7071 63.7065 40.9034C64.0654 40.4982 64.414 38.9723 62.681 38.206Z" fill="#FFDC5D"/>
<path d="M53.698 44.1509C53.3618 43.8498 53.2769 43.5261 53.2259 43.2363C51.0843 43.5295 48.1809 44.1294 45.951 46.3095C43.0577 49.1382 42.5642 52.1956 42.588 54.241C42.6072 55.8903 43.5071 56.6713 43.7709 54.2274C44.1014 51.1644 46.3223 45.1006 53.7138 44.5154C53.7455 44.5132 54.1519 44.4882 54.3828 44.4758C54.3828 44.4758 53.9843 44.4079 53.698 44.1509Z" fill="#EF9645"/>
</svg>
